<svg width="47" height="45" viewBox="0 0 47 45" fill="none" xmlns="http://www.w3.org/2000/svg">
<rect width="47" height="45" rx="8" fill="#0092DD"/>
<path d="M17 26C16.7661 26.0047 16.5379 25.9272 16.3551 25.7811C16.1724 25.6349 16.0468 25.4293 16 25.2L13.66 13.41C13.5237 12.7305 13.1564 12.1192 12.6205 11.6799C12.0845 11.2406 11.413 11.0003 10.72 11H9C8.73478 11 8.48043 10.8946 8.29289 10.7071C8.10536 10.5196 8 10.2652 8 10C8 9.73478 8.10536 9.48043 8.29289 9.29289C8.48043 9.10536 8.73478 9 9 9H10.72C11.8727 8.99976 12.99 9.39778 13.8829 10.1267C14.7758 10.8556 15.3895 11.8706 15.62 13L18 24.8C18.0291 24.9315 18.0312 25.0676 18.0064 25.1999C17.9816 25.3323 17.9303 25.4583 17.8556 25.5704C17.7809 25.6825 17.6843 25.7783 17.5716 25.8521C17.459 25.9259 17.3326 25.9762 17.2 26H17Z" fill="white"/>
<path d="M17.9998 33H16.1398C15.0791 32.9934 14.0615 32.5801 13.2968 31.8451C12.532 31.1102 12.0785 30.1098 12.0298 29.0503C11.981 27.9908 12.3408 26.953 13.0348 26.151C13.7289 25.349 14.7042 24.8439 15.7598 24.74L34.1698 23.07L35.7798 15H14.9998C14.7345 15 14.4802 14.8946 14.2926 14.7071C14.1051 14.5196 13.9998 14.2652 13.9998 14C13.9998 13.7348 14.1051 13.4804 14.2926 13.2929C14.4802 13.1054 14.7345 13 14.9998 13H36.9998C37.1475 13.001 37.2931 13.0347 37.4263 13.0986C37.5594 13.1626 37.6767 13.2553 37.7698 13.37C37.8675 13.4825 37.9389 13.6154 37.9787 13.759C38.0185 13.9026 38.0257 14.0533 37.9998 14.2L35.9998 24.2C35.9575 24.4115 35.848 24.6037 35.6876 24.7478C35.5272 24.892 35.3245 24.9805 35.1098 25L15.9398 26.74C15.3748 26.7665 14.8436 27.0164 14.4629 27.4346C14.0822 27.8528 13.8832 28.4051 13.9098 28.97C13.9363 29.5349 14.1861 30.0661 14.6043 30.4468C15.0225 30.8275 15.5748 31.0265 16.1398 31H17.9998C18.265 31 18.5193 31.1054 18.7069 31.2929C18.8944 31.4804 18.9998 31.7348 18.9998 32C18.9998 32.2652 18.8944 32.5196 18.7069 32.7071C18.5193 32.8946 18.265 33 17.9998 33Z" fill="white"/>
<path d="M33 36C32.2089 36 31.4355 35.7654 30.7777 35.3259C30.1199 34.8864 29.6072 34.2616 29.3045 33.5307C29.0017 32.7998 28.9225 31.9956 29.0769 31.2196C29.2312 30.4437 29.6122 29.731 30.1716 29.1716C30.731 28.6122 31.4437 28.2312 32.2196 28.0769C32.9956 27.9225 33.7998 28.0017 34.5307 28.3045C35.2616 28.6072 35.8864 29.1199 36.3259 29.7777C36.7654 30.4355 37 31.2089 37 32C37 33.0609 36.5786 34.0783 35.8284 34.8284C35.0783 35.5786 34.0609 36 33 36ZM33 30C32.6044 30 32.2178 30.1173 31.8889 30.3371C31.56 30.5568 31.3036 30.8692 31.1522 31.2346C31.0009 31.6001 30.9613 32.0022 31.0384 32.3902C31.1156 32.7781 31.3061 33.1345 31.5858 33.4142C31.8655 33.6939 32.2219 33.8844 32.6098 33.9616C32.9978 34.0387 33.3999 33.9991 33.7654 33.8478C34.1308 33.6964 34.4432 33.44 34.6629 33.1111C34.8827 32.7822 35 32.3956 35 32C35 31.4696 34.7893 30.9609 34.4142 30.5858C34.0391 30.2107 33.5304 30 33 30Z" fill="white"/>
<path d="M21 36C20.2089 36 19.4355 35.7654 18.7777 35.3259C18.1199 34.8864 17.6072 34.2616 17.3045 33.5307C17.0017 32.7998 16.9225 31.9956 17.0769 31.2196C17.2312 30.4437 17.6122 29.731 18.1716 29.1716C18.731 28.6122 19.4437 28.2312 20.2196 28.0769C20.9956 27.9225 21.7998 28.0017 22.5307 28.3045C23.2616 28.6072 23.8864 29.1199 24.3259 29.7777C24.7654 30.4355 25 31.2089 25 32C25 33.0609 24.5786 34.0783 23.8284 34.8284C23.0783 35.5786 22.0609 36 21 36ZM21 30C20.6044 30 20.2178 30.1173 19.8889 30.3371C19.56 30.5568 19.3036 30.8692 19.1522 31.2346C19.0009 31.6001 18.9613 32.0022 19.0384 32.3902C19.1156 32.7781 19.3061 33.1345 19.5858 33.4142C19.8655 33.6939 20.2219 33.8844 20.6098 33.9616C20.9978 34.0387 21.3999 33.9991 21.7654 33.8478C22.1308 33.6964 22.4432 33.44 22.6629 33.1111C22.8827 32.7822 23 32.3956 23 32C23 31.4696 22.7893 30.9609 22.4142 30.5858C22.0391 30.2107 21.5304 30 21 30Z" fill="white"/>
<path d="M30 33H24C23.7348 33 23.4804 32.8946 23.2929 32.7071C23.1054 32.5196 23 32.2652 23 32C23 31.7348 23.1054 31.4804 23.2929 31.2929C23.4804 31.1054 23.7348 31 24 31H30C30.2652 31 30.5196 31.1054 30.7071 31.2929C30.8946 31.4804 31 31.7348 31 32C31 32.2652 30.8946 32.5196 30.7071 32.7071C30.5196 32.8946 30.2652 33 30 33Z" fill="white"/>
</svg>
