<svg width="327" height="77" viewBox="0 0 327 77" fill="none" xmlns="http://www.w3.org/2000/svg">
<rect width="327" height="77" rx="10" fill="#0092DD"/>
<path d="M62.9531 28.5684C61.5352 28.5684 60.2578 28.8145 59.1211 29.3066C57.9961 29.7871 57.0352 30.4902 56.2383 31.416C55.4531 32.3301 54.8496 33.4375 54.4277 34.7383C54.0059 36.0391 53.7949 37.5039 53.7949 39.1328C53.7949 41.2891 54.1289 43.1641 54.7969 44.7578C55.4766 46.3398 56.4844 47.5645 57.8203 48.4316C59.168 49.2988 60.8496 49.7324 62.8652 49.7324C64.0137 49.7324 65.0918 49.6387 66.0996 49.4512C67.1191 49.252 68.1094 49.0059 69.0703 48.7129V51.3145C68.1328 51.666 67.1484 51.9238 66.1172 52.0879C65.0859 52.2637 63.8613 52.3516 62.4434 52.3516C59.8301 52.3516 57.6445 51.8125 55.8867 50.7344C54.1406 49.6445 52.8281 48.1094 51.9492 46.1289C51.082 44.1484 50.6484 41.8105 50.6484 39.1152C50.6484 37.1699 50.918 35.3945 51.457 33.7891C52.0078 32.1719 52.8047 30.7773 53.8477 29.6055C54.9023 28.4336 56.1914 27.5312 57.7148 26.8984C59.25 26.2539 61.0078 25.9316 62.9883 25.9316C64.2891 25.9316 65.543 26.0605 66.75 26.3184C67.957 26.5762 69.0469 26.9453 70.0195 27.4258L68.8242 29.957C68.0039 29.582 67.1016 29.2598 66.1172 28.9902C65.1445 28.709 64.0898 28.5684 62.9531 28.5684ZM74.6777 26.3008H77.4727V41.1543C77.4727 41.7168 77.4668 42.332 77.4551 43C77.4434 43.6562 77.4258 44.3008 77.4023 44.9336C77.3789 45.5664 77.3496 46.1406 77.3145 46.6562C77.291 47.1719 77.2676 47.5703 77.2441 47.8516H77.3848L91.6934 26.3008H94.9805V52H92.1855V37.3223C92.1855 36.7012 92.1973 36.0449 92.2207 35.3535C92.2441 34.6504 92.2676 33.9707 92.291 33.3145C92.3262 32.6582 92.3613 32.0723 92.3965 31.5566C92.4316 31.0293 92.4551 30.625 92.4668 30.3438H92.3086L77.9824 52H74.6777V26.3008ZM101.994 52V26.3008H117.094V28.9375H104.982V37.2344H108.973C111.445 37.2344 113.379 37.5391 114.773 38.1484C116.168 38.7578 117.146 39.6074 117.709 40.6973C118.283 41.7871 118.57 43.0527 118.57 44.4941C118.57 46.8613 117.861 48.707 116.443 50.0312C115.037 51.3438 112.699 52 109.43 52H101.994ZM104.982 49.4336H109.113C111.434 49.4336 113.074 49.0293 114.035 48.2207C115.008 47.4004 115.494 46.1582 115.494 44.4941C115.494 43.334 115.26 42.4141 114.791 41.7344C114.322 41.0547 113.584 40.5684 112.576 40.2754C111.568 39.9824 110.244 39.8359 108.604 39.8359H104.982V49.4336ZM135.34 52L126.709 29.2539H126.568C126.615 29.7344 126.656 30.3203 126.691 31.0117C126.727 31.7031 126.756 32.459 126.779 33.2793C126.803 34.0879 126.814 34.9141 126.814 35.7578V52H124.037V26.3008H128.467L136.605 47.6758H136.729L144.99 26.3008H149.385V52H146.432V35.5469C146.432 34.7852 146.443 34.0234 146.467 33.2617C146.49 32.4883 146.52 31.7617 146.555 31.082C146.59 30.3906 146.625 29.793 146.66 29.2891H146.52L137.783 52H135.34ZM170.725 52H156.416V26.3008H170.725V28.9375H159.404V37.252H170.074V39.8535H159.404V49.3633H170.725V52ZM194.701 52H191.713V28.9375H183.381C183.217 30.25 183.041 31.6211 182.854 33.0508C182.666 34.4805 182.473 35.9043 182.273 37.3223C182.074 38.7402 181.875 40.082 181.676 41.3477C181.477 42.6133 181.277 43.7383 181.078 44.7227C180.773 46.3516 180.393 47.7402 179.936 48.8887C179.49 50.0254 178.893 50.8984 178.143 51.5078C177.404 52.1055 176.426 52.4043 175.207 52.4043C174.797 52.4043 174.387 52.3633 173.977 52.2812C173.578 52.1992 173.227 52.0996 172.922 51.9824V49.4688C173.191 49.5859 173.49 49.6855 173.818 49.7676C174.158 49.8496 174.516 49.8906 174.891 49.8906C175.629 49.8906 176.209 49.5977 176.631 49.0117C177.064 48.4141 177.404 47.6582 177.65 46.7441C177.908 45.8301 178.131 44.8926 178.318 43.9316C178.471 43.1348 178.646 42.127 178.846 40.9082C179.045 39.6895 179.256 38.3066 179.479 36.7598C179.701 35.2012 179.93 33.5371 180.164 31.7676C180.41 29.998 180.65 28.1758 180.885 26.3008H194.701V52ZM224.021 39.1152C224.021 41.0957 223.77 42.9004 223.266 44.5293C222.762 46.1465 222.012 47.541 221.016 48.7129C220.031 49.873 218.807 50.7695 217.342 51.4023C215.877 52.0352 214.178 52.3516 212.244 52.3516C210.252 52.3516 208.512 52.0352 207.023 51.4023C205.547 50.7695 204.316 49.8672 203.332 48.6953C202.359 47.5234 201.627 46.123 201.135 44.4941C200.654 42.8652 200.414 41.0605 200.414 39.0801C200.414 36.4551 200.848 34.1523 201.715 32.1719C202.582 30.1914 203.895 28.6504 205.652 27.5488C207.422 26.4473 209.637 25.8965 212.297 25.8965C214.84 25.8965 216.979 26.4414 218.713 27.5312C220.459 28.6211 221.777 30.1562 222.668 32.1367C223.57 34.1055 224.021 36.4316 224.021 39.1152ZM203.561 39.1152C203.561 41.2949 203.871 43.1816 204.492 44.7754C205.113 46.3691 206.062 47.5996 207.34 48.4668C208.629 49.334 210.264 49.7676 212.244 49.7676C214.236 49.7676 215.865 49.334 217.131 48.4668C218.408 47.5996 219.352 46.3691 219.961 44.7754C220.57 43.1816 220.875 41.2949 220.875 39.1152C220.875 35.7988 220.178 33.209 218.783 31.3457C217.4 29.4707 215.238 28.5332 212.297 28.5332C210.305 28.5332 208.664 28.9609 207.375 29.8164C206.086 30.6719 205.125 31.8906 204.492 33.4727C203.871 35.043 203.561 36.9238 203.561 39.1152ZM247.664 52H244.693V41.3477C243.322 41.8398 242.021 42.2383 240.791 42.543C239.561 42.8477 238.195 43 236.695 43C234.27 43 232.406 42.4434 231.105 41.3301C229.816 40.2051 229.172 38.5938 229.172 36.4961V26.3008H232.16V36.0742C232.16 37.4922 232.535 38.5645 233.285 39.291C234.047 40.0059 235.283 40.3633 236.994 40.3633C238.436 40.3633 239.725 40.2344 240.861 39.9766C242.01 39.707 243.287 39.3262 244.693 38.834V26.3008H247.664V52ZM254.748 26.3008H257.543V41.1543C257.543 41.7168 257.537 42.332 257.525 43C257.514 43.6562 257.496 44.3008 257.473 44.9336C257.449 45.5664 257.42 46.1406 257.385 46.6562C257.361 47.1719 257.338 47.5703 257.314 47.8516H257.455L271.764 26.3008H275.051V52H272.256V37.3223C272.256 36.7012 272.268 36.0449 272.291 35.3535C272.314 34.6504 272.338 33.9707 272.361 33.3145C272.396 32.6582 272.432 32.0723 272.467 31.5566C272.502 31.0293 272.525 30.625 272.537 30.3438H272.379L258.053 52H254.748V26.3008Z" fill="#FFFEFE"/>
</svg>
