<svg width="251" height="66" viewBox="0 0 251 66" fill="none" xmlns="http://www.w3.org/2000/svg">
<rect width="250.558" height="59" rx="10" fill="#0092DD"/>
<path d="M24.9531 19.5684C23.5352 19.5684 22.2578 19.8145 21.1211 20.3066C19.9961 20.7871 19.0352 21.4902 18.2383 22.416C17.4531 23.3301 16.8496 24.4375 16.4277 25.7383C16.0059 27.0391 15.7949 28.5039 15.7949 30.1328C15.7949 32.2891 16.1289 34.1641 16.7969 35.7578C17.4766 37.3398 18.4844 38.5645 19.8203 39.4316C21.168 40.2988 22.8496 40.7324 24.8652 40.7324C26.0137 40.7324 27.0918 40.6387 28.0996 40.4512C29.1191 40.252 30.1094 40.0059 31.0703 39.7129V42.3145C30.1328 42.666 29.1484 42.9238 28.1172 43.0879C27.0859 43.2637 25.8613 43.3516 24.4434 43.3516C21.8301 43.3516 19.6445 42.8125 17.8867 41.7344C16.1406 40.6445 14.8281 39.1094 13.9492 37.1289C13.082 35.1484 12.6484 32.8105 12.6484 30.1152C12.6484 28.1699 12.918 26.3945 13.457 24.7891C14.0078 23.1719 14.8047 21.7773 15.8477 20.6055C16.9023 19.4336 18.1914 18.5312 19.7148 17.8984C21.25 17.2539 23.0078 16.9316 24.9883 16.9316C26.2891 16.9316 27.543 17.0605 28.75 17.3184C29.957 17.5762 31.0469 17.9453 32.0195 18.4258L30.8242 20.957C30.0039 20.582 29.1016 20.2598 28.1172 19.9902C27.1445 19.709 26.0898 19.5684 24.9531 19.5684ZM36.6777 17.3008H39.4727V32.1543C39.4727 32.7168 39.4668 33.332 39.4551 34C39.4434 34.6562 39.4258 35.3008 39.4023 35.9336C39.3789 36.5664 39.3496 37.1406 39.3145 37.6562C39.291 38.1719 39.2676 38.5703 39.2441 38.8516H39.3848L53.6934 17.3008H56.9805V43H54.1855V28.3223C54.1855 27.7012 54.1973 27.0449 54.2207 26.3535C54.2441 25.6504 54.2676 24.9707 54.291 24.3145C54.3262 23.6582 54.3613 23.0723 54.3965 22.5566C54.4316 22.0293 54.4551 21.625 54.4668 21.3438H54.3086L39.9824 43H36.6777V17.3008ZM63.9941 43V17.3008H79.0938V19.9375H66.9824V28.2344H70.9727C73.4453 28.2344 75.3789 28.5391 76.7734 29.1484C78.168 29.7578 79.1465 30.6074 79.709 31.6973C80.2832 32.7871 80.5703 34.0527 80.5703 35.4941C80.5703 37.8613 79.8613 39.707 78.4434 41.0312C77.0371 42.3438 74.6992 43 71.4297 43H63.9941ZM66.9824 40.4336H71.1133C73.4336 40.4336 75.0742 40.0293 76.0352 39.2207C77.0078 38.4004 77.4941 37.1582 77.4941 35.4941C77.4941 34.334 77.2598 33.4141 76.791 32.7344C76.3223 32.0547 75.584 31.5684 74.5762 31.2754C73.5684 30.9824 72.2441 30.8359 70.6035 30.8359H66.9824V40.4336ZM97.3398 43L88.709 20.2539H88.5684C88.6152 20.7344 88.6562 21.3203 88.6914 22.0117C88.7266 22.7031 88.7559 23.459 88.7793 24.2793C88.8027 25.0879 88.8145 25.9141 88.8145 26.7578V43H86.0371V17.3008H90.4668L98.6055 38.6758H98.7285L106.99 17.3008H111.385V43H108.432V26.5469C108.432 25.7852 108.443 25.0234 108.467 24.2617C108.49 23.4883 108.52 22.7617 108.555 22.082C108.59 21.3906 108.625 20.793 108.66 20.2891H108.52L99.7832 43H97.3398ZM132.725 43H118.416V17.3008H132.725V19.9375H121.404V28.252H132.074V30.8535H121.404V40.3633H132.725V43ZM156.701 43H153.713V19.9375H145.381C145.217 21.25 145.041 22.6211 144.854 24.0508C144.666 25.4805 144.473 26.9043 144.273 28.3223C144.074 29.7402 143.875 31.082 143.676 32.3477C143.477 33.6133 143.277 34.7383 143.078 35.7227C142.773 37.3516 142.393 38.7402 141.936 39.8887C141.49 41.0254 140.893 41.8984 140.143 42.5078C139.404 43.1055 138.426 43.4043 137.207 43.4043C136.797 43.4043 136.387 43.3633 135.977 43.2812C135.578 43.1992 135.227 43.0996 134.922 42.9824V40.4688C135.191 40.5859 135.49 40.6855 135.818 40.7676C136.158 40.8496 136.516 40.8906 136.891 40.8906C137.629 40.8906 138.209 40.5977 138.631 40.0117C139.064 39.4141 139.404 38.6582 139.65 37.7441C139.908 36.8301 140.131 35.8926 140.318 34.9316C140.471 34.1348 140.646 33.127 140.846 31.9082C141.045 30.6895 141.256 29.3066 141.479 27.7598C141.701 26.2012 141.93 24.5371 142.164 22.7676C142.41 20.998 142.65 19.1758 142.885 17.3008H156.701V43ZM186.021 30.1152C186.021 32.0957 185.77 33.9004 185.266 35.5293C184.762 37.1465 184.012 38.541 183.016 39.7129C182.031 40.873 180.807 41.7695 179.342 42.4023C177.877 43.0352 176.178 43.3516 174.244 43.3516C172.252 43.3516 170.512 43.0352 169.023 42.4023C167.547 41.7695 166.316 40.8672 165.332 39.6953C164.359 38.5234 163.627 37.123 163.135 35.4941C162.654 33.8652 162.414 32.0605 162.414 30.0801C162.414 27.4551 162.848 25.1523 163.715 23.1719C164.582 21.1914 165.895 19.6504 167.652 18.5488C169.422 17.4473 171.637 16.8965 174.297 16.8965C176.84 16.8965 178.979 17.4414 180.713 18.5312C182.459 19.6211 183.777 21.1562 184.668 23.1367C185.57 25.1055 186.021 27.4316 186.021 30.1152ZM165.561 30.1152C165.561 32.2949 165.871 34.1816 166.492 35.7754C167.113 37.3691 168.062 38.5996 169.34 39.4668C170.629 40.334 172.264 40.7676 174.244 40.7676C176.236 40.7676 177.865 40.334 179.131 39.4668C180.408 38.5996 181.352 37.3691 181.961 35.7754C182.57 34.1816 182.875 32.2949 182.875 30.1152C182.875 26.7988 182.178 24.209 180.783 22.3457C179.4 20.4707 177.238 19.5332 174.297 19.5332C172.305 19.5332 170.664 19.9609 169.375 20.8164C168.086 21.6719 167.125 22.8906 166.492 24.4727C165.871 26.043 165.561 27.9238 165.561 30.1152ZM209.664 43H206.693V32.3477C205.322 32.8398 204.021 33.2383 202.791 33.543C201.561 33.8477 200.195 34 198.695 34C196.27 34 194.406 33.4434 193.105 32.3301C191.816 31.2051 191.172 29.5938 191.172 27.4961V17.3008H194.16V27.0742C194.16 28.4922 194.535 29.5645 195.285 30.291C196.047 31.0059 197.283 31.3633 198.994 31.3633C200.436 31.3633 201.725 31.2344 202.861 30.9766C204.01 30.707 205.287 30.3262 206.693 29.834V17.3008H209.664V43ZM216.748 17.3008H219.543V32.1543C219.543 32.7168 219.537 33.332 219.525 34C219.514 34.6562 219.496 35.3008 219.473 35.9336C219.449 36.5664 219.42 37.1406 219.385 37.6562C219.361 38.1719 219.338 38.5703 219.314 38.8516H219.455L233.764 17.3008H237.051V43H234.256V28.3223C234.256 27.7012 234.268 27.0449 234.291 26.3535C234.314 25.6504 234.338 24.9707 234.361 24.3145C234.396 23.6582 234.432 23.0723 234.467 22.5566C234.502 22.0293 234.525 21.625 234.537 21.3438H234.379L220.053 43H216.748V17.3008Z" fill="#FFFEFE"/>
<rect x="125" y="59.5355" width="9.24262" height="9.14215" transform="rotate(-45 125 59.5355)" fill="#0092DD"/>
</svg>
